<?xml version="1.0" encoding="UTF-8"?>
<svg width="22px" height="22px" viewBox="0 0 22 22" version="1.1" xmlns="http://www.w3.org/2000/svg" xmlns:xlink="http://www.w3.org/1999/xlink">
    <!-- Generator: Sketch 64 (93537) - https://sketch.com -->
    <title>build-24px</title>
    <desc>Created with Sketch.</desc>
    <g id="Page-1" stroke="none" stroke-width="1" fill="none" fill-rule="evenodd">
        <g id="build-24px" fill="#71DAFF" fill-rule="nonzero">
            <path d="M11.09,1.91 C9.08,-0.1 6.07,-0.51 3.65,0.67 L7.28,4.3 C7.67,4.69 7.67,5.32 7.28,5.71 L5.69,7.3 C5.3,7.7 4.67,7.7 4.28,7.3 L0.65,3.67 C-0.52,6.1 -0.11,9.09 1.9,11.1 C3.76,12.96 6.48,13.45 8.79,12.58 L16.75,20.54 C17.78,21.57 19.44,21.57 20.46,20.54 C21.49,19.51 21.49,17.85 20.46,16.83 L12.54,8.9 C13.46,6.56 12.98,3.8 11.09,1.91 Z" id="Path"></path>
        </g>
    </g>
</svg>