<?xml version="1.0" encoding="UTF-8"?>
<svg width="20px" height="22px" viewBox="0 0 20 22" version="1.1" xmlns="http://www.w3.org/2000/svg" xmlns:xlink="http://www.w3.org/1999/xlink">
    <!-- Generator: Sketch 64 (93537) - https://sketch.com -->
    <title>calendar_today-24px</title>
    <desc>Created with Sketch.</desc>
    <g id="Page-1" stroke="none" stroke-width="1" fill="none" fill-rule="evenodd">
        <g id="calendar_today-24px" fill="#71DAFF" fill-rule="nonzero">
            <path d="M18,2 L17,2 L17,1 C17,0.45 16.55,0 16,0 C15.45,0 15,0.45 15,1 L15,2 L5,2 L5,1 C5,0.45 4.55,0 4,0 C3.45,0 3,0.45 3,1 L3,2 L2,2 C0.9,2 0,2.9 0,4 L0,20 C0,21.1 0.9,22 2,22 L18,22 C19.1,22 20,21.1 20,20 L20,4 C20,2.9 19.1,2 18,2 Z M17,20 L3,20 C2.45,20 2,19.55 2,19 L2,7 L18,7 L18,19 C18,19.55 17.55,20 17,20 Z" id="Shape"></path>
        </g>
    </g>
</svg>