<?xml version="1.0" encoding="UTF-8"?>
<svg width="14px" height="20px" viewBox="0 0 14 20" version="1.1" xmlns="http://www.w3.org/2000/svg" xmlns:xlink="http://www.w3.org/1999/xlink">
    <!-- Generator: Sketch 64 (93537) - https://sketch.com -->
    <title>location_on-24px</title>
    <desc>Created with Sketch.</desc>
    <g id="Page-1" stroke="none" stroke-width="1" fill="none" fill-rule="evenodd">
        <g id="location_on-24px" fill="#71DAFF" fill-rule="nonzero">
            <path d="M7,0 C3.13,0 0,3.13 0,7 C0,11.17 4.42,16.92 6.24,19.11 C6.64,19.59 7.37,19.59 7.77,19.11 C9.58,16.92 14,11.17 14,7 C14,3.13 10.87,0 7,0 Z M7,9.5 C5.62,9.5 4.5,8.38 4.5,7 C4.5,5.62 5.62,4.5 7,4.5 C8.38,4.5 9.5,5.62 9.5,7 C9.5,8.38 8.38,9.5 7,9.5 Z" id="Shape"></path>
        </g>
    </g>
</svg>