<svg id="Layer_1" data-name="Layer 1" xmlns="http://www.w3.org/2000/svg" xmlns:xlink="http://www.w3.org/1999/xlink" viewBox="0 0 1577.54 741.48"><defs><style>.cls-1,.cls-114{fill:none;}.cls-2{fill:#289cd7;}.cls-2,.cls-3,.cls-5,.cls-59,.cls-60,.cls-61{fill-rule:evenodd;}.cls-3{fill:#374e59;}.cls-4,.cls-61{fill:#64ad7e;}.cls-5,.cls-7{fill:#82ae4c;}.cls-6{clip-path:url(#clip-path);}.cls-8{fill:#81ad4b;}.cls-9{fill:#80ac4b;}.cls-10{fill:#80ab4a;}.cls-11{fill:#7faa4a;}.cls-12{fill:#7ea949;}.cls-13{fill:#7da849;}.cls-14{fill:#7da748;}.cls-15{fill:#7ca648;}.cls-16{fill:#7ba547;}.cls-17{fill:#7aa447;}.cls-18{fill:#79a346;}.cls-19{fill:#79a246;}.cls-20{fill:#78a145;}.cls-21{fill:#77a045;}.cls-22{fill:#769f44;}.cls-23{fill:#759e44;}.cls-24{fill:#759d44;}.cls-25{fill:#749c43;}.cls-26{fill:#739b43;}.cls-27{fill:#729a42;}.cls-28{fill:#719942;}.cls-29{fill:#709841;}.cls-30{fill:#6f9741;}.cls-31{fill:#6f9640;}.cls-32{fill:#6e9540;}.cls-33{fill:#6d943f;}.cls-34{fill:#6c933f;}.cls-35{fill:#6b923e;}.cls-36{fill:#6a913e;}.cls-37{fill:#6a903d;}.cls-38{fill:#698f3d;}.cls-39{fill:#688e3c;}.cls-40{fill:#678d3c;}.cls-41{fill:#668c3b;}.cls-42{fill:#658b3b;}.cls-43{fill:#648a3a;}.cls-44{fill:#63893a;}.cls-45{fill:#638839;}.cls-46{fill:#628739;}.cls-47{fill:#618638;}.cls-48{fill:#608538;}.cls-49{fill:#5f8437;}.cls-50{fill:#5e8337;}.cls-51{fill:#5d8136;}.cls-52{fill:#5c8035;}.cls-53{fill:#5c7f35;}.cls-54{fill:#5b7e34;}.cls-55{fill:#5a7d34;}.cls-56{fill:#597c33;}.cls-57{fill:#587b33;}.cls-58{fill:#577a32;}.cls-59{fill:#08acad;}.cls-60{fill:#b2bc28;}.cls-62{clip-path:url(#clip-path-2);}.cls-63{fill:#427a57;}.cls-64{fill:#437b58;}.cls-65{fill:#447c59;}.cls-66{fill:#457d5a;}.cls-67{fill:#457e5b;}.cls-68{fill:#467f5b;}.cls-69{fill:#47805c;}.cls-70{fill:#47815d;}.cls-71{fill:#48825e;}.cls-72{fill:#49835e;}.cls-73{fill:#4a845f;}.cls-74{fill:#4a8560;}.cls-75{fill:#4b8661;}.cls-76{fill:#4c8762;}.cls-77{fill:#4d8862;}.cls-78{fill:#4d8963;}.cls-79{fill:#4e8b64;}.cls-80{fill:#4f8c65;}.cls-81{fill:#508d66;}.cls-82{fill:#508e66;}.cls-83{fill:#518f67;}.cls-84{fill:#519068;}.cls-85{fill:#529169;}.cls-86{fill:#539269;}.cls-87{fill:#53936a;}.cls-88{fill:#54946b;}.cls-89{fill:#55956c;}.cls-90{fill:#56966c;}.cls-91{fill:#56976d;}.cls-92{fill:#57986e;}.cls-93{fill:#58996f;}.cls-94{fill:#589a6f;}.cls-95{fill:#599b70;}.cls-96{fill:#599c71;}.cls-97{fill:#5a9d72;}.cls-98{fill:#5b9e72;}.cls-99{fill:#5b9f73;}.cls-100{fill:#5ca074;}.cls-101{fill:#5da174;}.cls-102{fill:#5da275;}.cls-103{fill:#5ea376;}.cls-104{fill:#5ea377;}.cls-105{fill:#5fa477;}.cls-106{fill:#60a578;}.cls-107{fill:#60a779;}.cls-108{fill:#61a87a;}.cls-109{fill:#61a97a;}.cls-110{fill:#62a97b;}.cls-111{fill:#62aa7c;}.cls-112{fill:#63ab7c;}.cls-113{fill:#64ac7d;}.cls-114{stroke:#374e59;stroke-miterlimit:10;stroke-width:4.03px;}</style><clipPath id="clip-path"><path class="cls-1" d="M348.91,354l.62.35c25.77,16.53,51.33,33.42,76.33,51.1l6.95,4.94q8.31-29.94,15.63-60.13c-26-19.27-52.72-37.62-79.73-55.47l-.89-.57q-9.45,29.89-18.91,59.79M28.3,148.25C17.83,165,9.76,183.36,3,201.92c-6,16.41-3,34,9.84,44.89,108,85.51,223,162.18,337.71,238.09C358,463.51,364.43,443,371.17,421,263.48,347,155.39,273.28,51.29,194.26c84.65,36,165.84,79.55,244.66,126.84q9.53-30.24,19.09-60.51C236.59,212.48,155.42,168.25,70.36,133a37.52,37.52,0,0,0-11.24-1.73,36.23,36.23,0,0,0-30.81,17"/></clipPath><clipPath id="clip-path-2"><path class="cls-1" d="M461.3,292.18c36,30,71.81,60.15,107.06,91,4.55-18.73,8.54-37.49,12.2-56.3-35.39-32.58-71.48-64.28-108.1-95.51q-4.87,30.52-11.16,60.79m101.47-25.37q12.45,10.68,24.62,21.59c10.5,9.52,15.93,14.33,29.67,28q2,2,4,4c2,2,3.77-24,6.92-51.07-17.78-18.4-36.46-35.91-55.62-52.85l-.33-.29c-4.14,23.7-9.38,50.57-9.23,50.71M411.59,156.7l.44.27a1340.5,1340.5,0,0,1,111.86,78.14q5.19-25.56,9.89-51.2a1271.46,1271.46,0,0,0-106.19-76.43q-8.13,24.55-16,49.18M279.32,47.21C270,62.65,261.85,79.6,258.42,97.53c-2.29,11.92.8,25,9.87,33.07,48,41.55,97,82,145.86,122.48,4.19-20.37,8.06-40.82,11.35-61.34q-50.91-42.62-102.11-84.82,18.23,9.21,36.09,19.13,8.67-24.64,17.79-49.07c-23.57-13.43-47.6-26-72.21-37.44a20,20,0,0,0-7.9-1.53c-6.79,0-14.08,3-17.85,9.22"/></clipPath></defs><title>presoArtboard 3</title><path id="Fill-5" class="cls-2" d="M1234.42,255.43,1322.31,168l87.48,87.88-87.89,87.47ZM1574.69,4.19s8.37,51.22-7.74,124.57c12.65,38.13,6.92,67,6.92,67s.45-19-11.57-47.78c-3.29,12.23-7.25,25-12,38.09,38.16,78,25.09,138.53,25.09,138.53s3.17-46.68-34.58-114.61a461.15,461.15,0,0,1-22.88,46.09c75.46,134.47,55.64,252.15,55.64,252.15s-117.79,19.28-251.91-56.79a467.44,467.44,0,0,1-46.19,22.7c67.74,38,114.46,35.09,114.46,35.09S1329.37,522,1251.49,483.5c-13.13,4.72-25.87,8.61-38.13,11.82,28.72,12.15,47.71,11.78,47.71,11.78s-28.88,5.63-66.92-7.21c-73.47,15.78-124.66,7.17-124.66,7.17s-8.38-51.24,7.74-124.62c-12.62-38.11-6.88-66.94-6.88-66.94s-.46,19,11.54,47.75c3.28-12.23,7.23-25,12-38.1-38.11-78-25.06-138.49-25.06-138.49s-3.17,46.67,34.56,114.59a466.53,466.53,0,0,1,22.89-46.07c-75.45-134.49-55.6-252.13-55.6-252.13s117.75-19.29,251.87,56.76a467,467,0,0,1,46.16-22.7C1301-.91,1254.29,2,1254.29,2s60.54-12.76,138.4,25.71c13.12-4.72,25.89-8.6,38.15-11.83-28.72-12.11-47.7-11.75-47.7-11.75s28.85-5.62,66.92,7.17c73.43-15.77,124.63-7.14,124.63-7.14Zm-74.33,280.49a529.06,529.06,0,0,1-67.61,82.11A527.14,527.14,0,0,1,1350.33,434c124.41,78.09,223.23,74.21,223.23,74.21s4.31-98.77-73.2-223.54ZM1069.49,507.06s40.07,1.75,101.38-17a199.24,199.24,0,0,1-83.9-84.31c-19,61.23-17.48,101.3-17.48,101.3Zm120.69-23.36c11.41-4,23.44-8.76,35.94-14.32A377.16,377.16,0,0,1,1107.9,350.6c-5.63,12.47-10.38,24.47-14.47,35.89,9.57,16.67,23.15,35.26,42.37,54.58s37.73,33,54.38,42.63Zm59.5-25.47c14-7.07,28.5-15.12,43.36-24.36a523.65,523.65,0,0,1-82.1-67.62,524.38,524.38,0,0,1-67.21-82.39c-9.31,14.82-17.45,29.26-24.58,43.24,14.92,22.4,34.22,46.53,59.22,71.64s49,44.49,71.31,59.49Zm72-43.36A667.91,667.91,0,0,0,1408.08,342a669.66,669.66,0,0,0,73.26-86A689.08,689.08,0,0,0,1322.46,96.37a688.78,688.78,0,0,0-159.61,158.88,667.94,667.94,0,0,0,72.9,86.36,667.61,667.61,0,0,0,86,73.26Zm178.76-187.49c9.29-14.83,17.43-29.26,24.56-43.24-14.91-22.41-34.21-46.51-59.17-71.59S1416.84,68,1394.51,53c-14,7.06-28.49,15.14-43.36,24.37a540.22,540.22,0,0,1,149.34,150Zm35.82-66.76c5.6-12.48,10.39-24.48,14.48-35.87-9.61-16.69-23.16-35.26-42.37-54.56s-37.79-33-54.41-42.66c-11.42,4-23.42,8.78-35.94,14.32a361.27,361.27,0,0,1,65.79,52.76c22.26,22.4,39.36,44.63,52.45,66Zm20.93-55.18c19-61.19,17.45-101.25,17.45-101.25s-40.06-1.75-101.38,17a199.44,199.44,0,0,1,83.93,84.27Zm-263.39-28.2C1169.46-.82,1070.68,3.05,1070.68,3.05s-4.34,98.75,73.18,223.51a538.66,538.66,0,0,1,150-149.32Z"/><path id="Fill-3" class="cls-3" d="M1445.78,672.11l23.65,0V667.7c0-7.21-.86-12.17-2.61-14.9s-4.83-4.11-9.26-4.12-7.38,1.41-9.2,4.22-2.74,7.73-2.76,14.74c.13,2,.18,3.5.17,4.47m24.4,29.87,22.9,0c0,.48,0,1.17.09,2.09s.07,1.58.07,2q0,18-8.64,26.4t-27.24,8.33a47.36,47.36,0,0,1-16.45-2.51,25,25,0,0,1-10.89-7.65,35.92,35.92,0,0,1-7.15-15.37q-2.05-9.29-2-33.36,0-19.2,1.89-27.45A31.52,31.52,0,0,1,1429,641a27.88,27.88,0,0,1,11.87-8.18,48.76,48.76,0,0,1,17.41-2.75,43,43,0,0,1,16.77,3,28.25,28.25,0,0,1,11.66,9,33.53,33.53,0,0,1,5.56,13.25q1.66,8,1.63,25.66l0,8-47.82-.11a24.25,24.25,0,0,0-.23,2.53c0,.86,0,2.25-.06,4.19,0,10,.88,17,2.74,21a9.61,9.61,0,0,0,9.38,6c4.31,0,7.43-1.58,9.38-4.83s2.93-8.5,3-15.77"/><path id="Fill-4" class="cls-3" d="M1577.36,697c.07.72.11,1.52.14,2.34s0,2,0,3.57q-.06,19.54-8.39,28.85t-25.79,9.25q-19.8,0-27.65-11.79T1508,685.61q.08-31.82,8-43.61t27.7-11.75q17.39,0,25.62,8.69t8.2,26.73v3.73l-23.24,0V667c0-6.37-.8-10.93-2.44-13.73s-4.28-4.2-8-4.2-6.47,1.36-8.14,4.08-2.52,7.28-2.54,13.62L1533,703c0,7.22.76,12.24,2.34,15.09s4.26,4.29,8.06,4.29c4.13,0,7-1.61,8.61-4.88s2.43-9.39,2.45-18.36V696.9l22.9.14"/><polyline id="Fill-6" class="cls-3" points="1093.52 740.92 1066.67 600.89 1093.67 600.96 1110.52 707.06 1129.03 601.04 1150.65 601.09 1170.49 709.3 1185.65 601.17 1212.38 601.23 1186.6 741.13 1155.7 741.06 1139.72 652.6 1124.61 740.99 1093.52 740.92"/><polyline id="Fill-7" class="cls-3" points="1305.79 601.46 1329.98 601.51 1329.66 741.48 1305.47 741.42 1305.79 601.46"/><path id="Fill-8" class="cls-3" d="M1239.08,672.7l23.64,0v-4.46c0-7.21-.86-12.18-2.61-14.9s-4.83-4.11-9.25-4.12-7.36,1.41-9.2,4.22-2.74,7.73-2.76,14.75c.12,2,.18,3.49.17,4.46m24.4,29.87,22.89,0c0,.48,0,1.17.09,2.09s.08,1.58.08,2q0,18-8.64,26.4t-27.25,8.33a47.2,47.2,0,0,1-16.43-2.51,24.9,24.9,0,0,1-10.9-7.65,35.57,35.57,0,0,1-7.14-15.37q-2.09-9.28-2-33.36,0-19.2,1.89-27.44a31.26,31.26,0,0,1,6.2-13.54,27.79,27.79,0,0,1,11.88-8.18,48.76,48.76,0,0,1,17.41-2.75,43,43,0,0,1,16.77,3,28.39,28.39,0,0,1,11.66,9,33.78,33.78,0,0,1,5.56,13.26c1.1,5.3,1.66,13.85,1.63,25.66l0,8-47.8-.11a21.68,21.68,0,0,0-.25,2.53c0,.87,0,2.25-.06,4.19,0,10,.89,17,2.74,21a9.59,9.59,0,0,0,9.37,6c4.31,0,7.44-1.58,9.39-4.83s2.93-8.5,3-15.77"/><polyline id="Fill-9" class="cls-3" points="1374.08 739.68 1374.35 622.79 1344.35 622.73 1344.41 599.65 1430.48 599.85 1430.42 622.92 1400.43 622.86 1400.16 739.74 1374.08 739.68"/><path class="cls-3" d="M615.67,628.48A46.51,46.51,0,0,1,602,630.62c-6.75,0-14.6-1.38-14.6-9.34,0-11,21.51-8.58,27.94-14.55v18.75a26.12,26.12,0,0,0,.31,2.91m19.62,11.49a84.56,84.56,0,0,1-1.1-9.65V590.91c0-17.77-12.56-25-29.35-25a79.42,79.42,0,0,0-30.93,6.59l6.45,14a59.75,59.75,0,0,1,21.82-4.6c4.71,0,13.19.61,13.19,7,0,13.32-48.66,2.76-48.66,33.69,0,17.92,20.09,23.28,35.16,23.28,11.46,0,22.6-2.76,33.44-6m-82.54-72.29H533.91v76.58h18.84Zm1.83-26.08c0-6.12-5.34-10.87-11.62-10.87-6.44,0-11.3,4.75-11.3,10.87,0,6.43,4.86,10.72,11.3,10.72,6.28,0,11.62-4.29,11.62-10.72M499.84,598.3H467.59c.47-9.19,6.28-17.15,16.32-17.15,10.52,0,15.86,7.5,16,17.15m19.46,4.29c0-21.29-13-36.6-35.63-36.6-24,0-36.42,17.92-36.42,40.13,0,23.74,16,39.82,40.19,39.82a71.17,71.17,0,0,0,27-5.67l-6-14.24a54.51,54.51,0,0,1-19.94,4c-11.61,0-19.78-5.51-21-17.31h50.71a73,73,0,0,0,1.1-10.11m-73.1-34.92A61.55,61.55,0,0,0,431.84,566c-12.4,0-24.49,3.83-35.79,8.42a88.58,88.58,0,0,1,1.41,11.49v58.35H416.3V585.4c0-.46-.16-1.53-.16-1.53a49,49,0,0,1,14.13-2,40.45,40.45,0,0,1,10.32,1.54Zm-68.89,0H358.51v76.58h18.84Zm1.84-26.21c0-6.12-5.34-10.87-11.62-10.87-6.43,0-11.3,4.75-11.3,10.87,0,6.43,4.86,10.72,11.3,10.72,6.28,0,11.62-4.29,11.62-10.72m-35.3,101.2-5.18-14.86c-4.55,1.53-9.1,3.06-14,3.06-4.71,0-7.22-1.84-7.22-6.59V583.56h22V567.63H317.59v-21H298.72v21.29l-9,.46v14.55l9,.46v42.29c0,14.85,9.89,21.29,24.18,21.29,7.38,0,14.13-2,21-4.29m-69.83-75H255.26v76.58H274.1Zm1.91-26.2c0-6.12-5.34-10.87-11.62-10.87-6.44,0-11.3,4.75-11.3,10.87,0,6.43,4.86,10.72,11.3,10.72,6.28,0,11.62-4.29,11.62-10.72M237.71,644.21V593.06c0-17-9.26-27.11-26.84-27.11A60.25,60.25,0,0,0,187.59,571V531.8h-18.8V644.21h18.8V587.55c5.18-3.06,11.93-5.67,18-5.67,7.85,0,13.18,5.51,13.18,13.94v48.4ZM158.43,539.48h-20.1L119.5,611c-.63,2.3-1.41,4.59-1.89,6.89h-.31L93.59,539.48H70.68L49.59,611c-.63,2.3-1.41,4.59-1.88,6.89H47.4L25.78,539.48H3.49l28.57,91.28c3.93,12.56,13.66,15,25.12,15l24.33-78.41,19.31,63.4c3.77,12.4,14.44,15,26.22,15Z"/><path class="cls-3" d="M631.73,705.48c0,17.81-9.64,30.37-28.23,30.37a44.79,44.79,0,0,1-9.44-1V679.48a50.57,50.57,0,0,1,10.9-1.07c17.13,0,26.77,10,26.77,27.06m6.62,0c0-21-12.65-32.71-33.39-32.71a87.38,87.38,0,0,0-17.37,1.72V740a81.25,81.25,0,0,0,15.24,1.5c22.29,0,35.53-13.92,35.53-36m-67,34.55V673.8h-6.52v60h-.25a23.34,23.34,0,0,0-1.56-3.41L529,673.84h-9.64v66.54h6.52V680h.29a19,19,0,0,0,1.36,3.41l31.15,51.1c2.14,3.6,5.35,6.23,9.05,6.33a9.72,9.72,0,0,0,3.6-.88m-77.65-24.62h-26l12.27-31.73.78-2.14Zm16.64,25-25.79-66.58H478l-26.77,66.59h6.52L465.23,721h30.56l7.59,19.37Zm-61.79,0v-5.65H421V673.8h-6.52v66.58Zm-60.62-25h-26l12.26-31.73.78-2.14Zm16.64,25-25.79-66.58H372.2l-26.74,66.59H352L359.47,721H390l7.56,19.37Zm-64.7,0v-5.65H312.29V708.48h22.3v-5.65h-22.3V679.48H339v-5.65H305.77v66.55ZM293,679.48v-5.65H248.48v5.65h37.18l-36.5,52.65c-1.36,2-2.33,3.12-2.33,5.65a8.16,8.16,0,0,0,.49,2.63h45.55v-5.65H254.8Zm-76.09-5.65h-6.28L194.73,728a30.94,30.94,0,0,0-.88,4.28h-.26l-16.65-58.5h-7.88l-15.77,54.12a28.31,28.31,0,0,0-.88,4.38h-.19l-17-58.5h-7l18,59.28c2.43,8.08,7.3,8.27,9,8.27l17-57.62a11.86,11.86,0,0,0,.48-2.34c.1,0,.2,1.17.59,2.34L187.5,733.1c2.34,8.08,7.11,8.27,9.15,8.27Zm-95.28,66.55v-5.65H94.05V708.48h22.29v-5.65H94.05V679.48h26.67v-5.65H87.53v66.55ZM72.26,740V673.8H65.74v60h-.15A23.34,23.34,0,0,0,64,730.39L29.92,673.8H20.29v66.58h6.52V680h.29a18.64,18.64,0,0,0,1.37,3.45l31.12,51.06c2.14,3.6,5.35,6.23,9,6.33a9.72,9.72,0,0,0,3.6-.88"/><path class="cls-4" d="M323.71,106.28a.7.7,0,0,0-1,.2.72.72,0,0,0,.2,1h0l33.17,27.48a.67.67,0,0,0,.94,0,.64.64,0,0,0,.18-.33l2.92-8.35a.78.78,0,0,0-.33-.85q-17.86-10-36.11-19.15M439.19,75a.7.7,0,0,0-.55-.83.72.72,0,0,0-.83.56Q432.32,91,426.93,107.29a.9.9,0,0,0,.29.82l8.07,5.25a.65.65,0,0,0,.92,0,.6.6,0,0,0,.17-.49q1.77-18.9,2.8-37.86m-9.34,93a.94.94,0,0,0-.32-.7q-8.53-5.52-17.17-10.93l-.45-.25.33.82s-1-1.33-1.3-.59c0,.06-.14.38-.47,1.39-.64,1.94-2.13,6.53-5.55,17.17a1.05,1.05,0,0,0,.22.76q10,8.3,19.9,16.63a.66.66,0,0,0,.92.11.65.65,0,0,0,.24-.54q1.94-11.93,3.65-23.87M296.59,321.31a.83.83,0,0,0-.31-.82c-78.82-47.31-160-90.9-244.69-126.88a.7.7,0,0,0-1,.25.71.71,0,0,0,.25,1h0c75.84,57.57,153.8,112.32,232.18,166.42a.67.67,0,0,0,.94-.07.69.69,0,0,0,.14-.3q6.28-19.77,12.51-39.57m71.7-25.92c12.48,8.25,31.31,21,31.31,21a.67.67,0,0,0,.94-.07.65.65,0,0,0,.15-.35q7.56-31.26,14.12-62.78a1,1,0,0,0-.28-.71L388.16,230.6a.65.65,0,0,0-.93,0,.68.68,0,0,0-.2.36q-10,31.5-19.9,63a.89.89,0,0,0,.3.81Zm-18.46,58.36-.64-.36a.67.67,0,0,0-.93.24.77.77,0,0,0-.07.16s-7.48,23.49-13.57,42.38a1,1,0,0,0,.27.8l35.81,24.67a.67.67,0,0,0,.93-.07.64.64,0,0,0,.15-.31s6.38-21.1,12.88-44.21a.88.88,0,0,0-.29-.78q-17.16-11.4-34.53-22.52m213.37-87.37c-.34-.4-1-.63-1.24.39l-.14.65-.56,2.64-1.94,9.29c-1.55,7.46-3.48,16.76-5,23.73l-.09.41a1.2,1.2,0,0,0,.22.68q12.83,11.55,25.53,23.24a.65.65,0,0,0,.91.15.62.62,0,0,0,.27-.54l.07-.34q1.68-8.76,3.26-17.53,1.83-10.32,3.51-20.67a1.15,1.15,0,0,0-.22-.64q-12.17-11-24.64-21.59ZM597.41,40.3a.71.71,0,0,0-1.41-.17v.17C589.53,99.16,581.46,157.73,571.3,216a1.29,1.29,0,0,0,.24.66l.33.28C582.6,226.41,594.13,237,594.13,237c.53.48,1.1.27,1.18-.44,7.35-65.17,9.72-131,2.1-196.3m-34-34C565-1.7,574.46,0,580.23,4.46a305.76,305.76,0,0,1,29.7,26.6c8,8,14.72,18.15,16.45,29.11l.11.78.07.47c10,68.74,8.1,138.73.66,207.73-3.14,27.09-6.91,51-6.91,51q-1.27,8-2.65,16-1.92,11.07-4,22.14-1.5,8-3.13,15.89l-.11.43c-1.82,8-5.13,18.71-12.53,22.88-5.64,3.19-11.41.51-17-4.24l-1-.91q-5.55-4.9-11.11-9.77c-35.25-30.87-71.07-61.06-107.07-91a.64.64,0,0,0-.91-.09.66.66,0,0,0-.24.49q-6,29.17-12.87,58-7.29,30.19-15.6,60.12-8.82,31.46-18.61,62.65l-.49,1.74c-3.29,9.85-9.53,20.4-19,24.68-8.55,3.87-17.35,1.5-26.56-4.26l-16.55-10.63-36.24-24q-26-17.25-52.05-34.68c-85-57.11-169.1-115.78-249.34-179.33C.7,235.56-2.3,218.34,3.59,202.16c6.79-18.53,14.83-36.83,25.27-53.54a35.79,35.79,0,0,1,41.29-14.94c85,35.22,166.12,79.45,244.51,127.49a.68.68,0,0,0,.93-.22.51.51,0,0,0,.07-.17q11.25-35.49,22.83-70.85a1,1,0,0,0-.22-.77q-35-29.31-69.56-59.11c-8.84-7.87-11.89-20.66-9.64-32.4,3.46-17.79,11.52-34.66,20.85-50.07C285,39.14,297,36.82,304.77,40.17c24.6,11.38,48.6,24,72.15,37.41a.69.69,0,0,0,.94-.23.42.42,0,0,0,.06-.14q10.29-27.42,21.33-54.47c3.41-7.12,14.89-7.67,22.09-4.18,16.36,7.92,33.76,17.86,47.25,30.2,8.25,6.83,15.72,16.92,15.79,27.64v1.17c.19,22.54-.65,45.06-2.34,67.54a1.35,1.35,0,0,0,.29.63q26,18.73,50.95,38.74a.65.65,0,0,0,1.14-.43c10.79-59,19.8-118.35,29-177.72M524.59,235.25a1,1,0,0,0-.26-.7q-23.06-17.94-46.88-34.82a.65.65,0,0,0-.92,0,.69.69,0,0,0-.19.5q-2.05,15.56-4.55,31.07a1.29,1.29,0,0,0,.24.65q22.2,18.93,44.12,38.11a.65.65,0,0,0,1.16-.4l.09-.45q3.75-17,7.19-34"/><path class="cls-5" d="M371.16,421c-6.73,22-13.16,42.52-20.65,63.91C235.76,409,120.78,332.32,12.81,246.81,0,235.89-3,218.32,3,201.92c6.8-18.56,14.86-36.9,25.33-53.67A36.49,36.49,0,0,1,70.36,133C155.42,168.25,236.59,212.48,315,260.59Q305.45,290.83,296,321.1c-78.82-47.28-160-90.86-244.66-126.83C155.39,273.27,263.48,347,371.16,421m54.7-15.53c-25-17.67-50.56-34.57-76.33-51.1l-.62-.35q9.51-29.88,18.91-59.79l.9.57c27,17.85,53.7,36.2,79.73,55.47q-7.32,30.18-15.63,60.13Z"/><g class="cls-6"><polyline class="cls-7" points="412.6 316.83 390.22 388.13 387.51 387.29 409.89 315.98"/><polyline class="cls-8" points="411.77 316.33 389.39 387.62 386.68 386.77 409.06 315.48"/><polyline class="cls-9" points="410.93 315.82 388.55 387.1 385.85 386.25 408.23 314.97"/><polyline class="cls-10" points="410.1 315.31 387.72 386.59 385.02 385.74 407.4 314.47"/><polyline class="cls-11" points="409.27 314.81 386.89 386.07 384.19 385.22 406.57 313.96"/><polyline class="cls-12" points="408.44 314.3 386.06 385.56 383.36 384.71 405.74 313.45"/><polyline class="cls-13" points="407.61 313.8 385.23 385.04 382.53 384.19 404.9 312.95"/><polyline class="cls-14" points="406.78 313.29 384.4 384.53 381.7 383.67 404.07 312.44"/><polyline class="cls-15" points="405.95 312.79 383.57 384.01 380.87 383.16 403.24 311.94"/><polyline class="cls-16" points="405.12 312.28 382.74 383.49 380.04 382.64 402.41 311.43"/><polyline class="cls-17" points="404.28 311.78 381.91 382.98 379.21 382.13 401.58 310.93"/><polyline class="cls-18" points="403.46 311.27 381.08 382.46 378.38 381.61 400.75 310.42"/><polyline class="cls-19" points="402.62 310.76 380.25 381.95 377.54 381.1 399.92 309.91"/><polyline class="cls-20" points="401.79 310.26 379.42 381.43 376.72 380.58 399.09 309.41"/><polyline class="cls-21" points="400.96 309.75 378.59 380.92 375.89 380.07 398.26 308.9"/><polyline class="cls-22" points="400.13 309.25 377.76 380.4 375.05 379.55 397.43 308.4"/><polyline class="cls-23" points="399.3 308.74 376.93 379.89 374.22 379.04 396.59 307.89"/><polyline class="cls-24" points="398.47 308.24 376.1 379.37 373.39 378.52 395.76 307.39"/><polyline class="cls-25" points="397.64 307.73 375.27 378.85 372.56 378 394.93 306.88"/><polyline class="cls-26" points="396.81 307.23 374.44 378.34 371.73 377.49 394.1 306.38"/><polyline class="cls-27" points="395.98 306.72 373.61 377.82 370.9 376.97 393.27 305.87"/><polyline class="cls-28" points="395.14 306.22 372.78 377.31 370.07 376.46 392.44 305.36"/><polyline class="cls-29" points="394.31 305.71 371.95 376.79 369.24 375.94 391.61 304.86"/><polyline class="cls-30" points="393.48 305.2 371.12 376.28 368.41 375.42 390.78 304.35"/><polyline class="cls-31" points="392.65 304.7 370.28 375.76 367.58 374.91 389.95 303.85"/><polyline class="cls-32" points="391.82 304.19 369.46 375.25 366.75 374.4 389.12 303.34"/><polyline class="cls-33" points="390.99 303.69 368.63 374.73 365.92 373.88 388.29 302.84"/><polyline class="cls-34" points="390.16 303.18 367.79 374.21 365.09 373.36 387.46 302.33"/><polyline class="cls-35" points="389.33 302.68 366.96 373.7 364.26 372.85 386.62 301.83"/><polyline class="cls-36" points="388.5 302.17 366.13 373.18 363.43 372.33 385.79 301.32"/><polyline class="cls-37" points="387.67 301.67 365.3 372.67 362.6 371.82 384.96 300.81"/><polyline class="cls-38" points="386.84 301.16 364.47 372.15 361.77 371.3 384.13 300.31"/><polyline class="cls-39" points="386.01 300.66 363.64 371.64 360.94 370.79 383.3 299.8"/><polyline class="cls-40" points="385.17 300.15 362.81 371.12 360.11 370.27 382.47 299.3"/><polyline class="cls-41" points="384.34 299.64 361.98 370.61 359.28 369.75 381.64 298.79"/><polyline class="cls-42" points="383.51 299.14 361.15 370.09 358.45 369.24 380.81 298.29"/><polyline class="cls-43" points="382.68 298.63 360.32 369.58 357.62 368.72 379.98 297.78"/><polyline class="cls-44" points="381.85 298.13 359.49 369.06 356.79 368.21 379.15 297.28"/><polyline class="cls-45" points="381.02 297.62 358.66 368.54 355.96 367.69 378.32 296.77"/><polyline class="cls-46" points="380.19 297.12 357.83 368.03 355.13 367.18 377.48 296.26"/><polyline class="cls-47" points="379.36 296.61 357 367.51 354.29 366.66 376.65 295.76"/><polyline class="cls-48" points="378.53 296.11 356.17 367 353.47 366.14 375.82 295.25"/><polyline class="cls-49" points="377.7 295.6 355.34 366.48 352.63 365.63 374.99 294.75"/><polyline class="cls-50" points="376.86 295.09 354.51 365.97 351.8 365.11 374.16 294.24"/><polyline class="cls-51" points="376.03 294.59 353.68 365.45 350.97 364.6 373.33 293.74"/><polyline class="cls-52" points="375.2 294.08 352.85 364.93 350.14 364.08 372.5 293.23"/><polyline class="cls-53" points="374.37 293.58 352.02 364.42 349.31 363.57 371.67 292.72"/><polyline class="cls-54" points="373.54 293.07 351.19 363.9 348.48 363.05 370.84 292.22"/><polyline class="cls-55" points="372.71 292.57 350.35 363.39 347.65 362.54 370.01 291.71"/><polyline class="cls-56" points="371.88 292.06 349.52 362.87 346.82 362.02 369.17 291.21"/><polyline class="cls-57" points="371.05 291.56 348.69 362.36 345.99 361.5 368.34 290.7"/><polyline class="cls-58" points="370.22 291.05 347.86 361.84 345.16 360.99 367.51 290.2"/></g><path class="cls-59" d="M580.5,393.88l-1-.91q-5.55-4.91-11.11-9.77c4.58-18.85,8.58-37.72,12.27-56.64q1.68-8.76,3.26-17.52,1.83-10.32,3.51-20.66c11.46,10.39,16.88,15.16,33.65,31.93q-1.27,8-2.65,16.06-3.3,19.06-7.14,38l-.12.46c-1.81,8-5.16,19-12.86,23.33-6.08,3.43-12.2.46-17.77-4.32M516.66,269.06C535.87,182,549.08,94.18,562.73,6.19c1.75-9.13,12.34-6.6,18-2.3A307.17,307.17,0,0,1,610.5,30.55c8.1,8.07,14.89,18.34,16.65,29.51l.12.79.07.47c10,68.82,8.1,138.87.66,207.92-10.82-11.2-22-22.05-33.35-32.69,7.35-65.13,9.71-131,2.1-196.17-9.71,88.31-23,176-41.6,262.86l-.09.42q-19.14-17.19-38.47-34.18Z"/><path class="cls-60" d="M477,200.31c-6.68,50.49-16.91,100.6-28.58,149.94-15.91-11.78-32.08-23.19-48.39-34.41,11.81-48.85,22-98.19,29.12-148q24.28,15.69,47.86,32.43M356.59,134.4c13.11-37.7,27-75.09,42-111.92,3.66-7.72,15.75-8.09,23.05-4.55,16.37,8,33.83,17.89,47.37,30.3,8.31,6.88,16,17.14,16,28.17v1.12c.19,22.58-.65,45.14-2.34,67.65q-23.07-16.69-47-32.39,1.77-18.89,2.8-37.84-16.89,49.95-32.89,100.17-24.46-20.4-49-40.71m57.6,338.66-.53,1.67c-3.32,9.91-9.64,20.71-19.36,25.11-8.87,4-17.94,1.5-27.23-4.3L350.51,484.9q6.74-19.44,12.94-39c2.57-8.15,5.12-16.39,7.71-24.86l-35.82-24.66q-26-17.85-51.9-35.73c18.09-56.9,35.69-114.15,54.42-171q24.88,20.81,49.87,41.47c-17.44,55.08-34.68,110.23-52.39,165.22L371.16,421c-2.59,8.47-5.13,16.71-7.71,24.86,7.27-22.87,14.08-45.9,20.58-69,16.42,10.95,25.15,16.72,48.78,33.54Q424,441.82,414.19,473"/><path class="cls-61" d="M568.35,383.2c-35.24-30.87-71.06-61.05-107-91,4.14-20.17,7.9-40.44,11.16-60.79,36.62,31.23,72.71,62.93,108.1,95.51-3.66,18.81-7.65,37.57-12.2,56.3M414.14,253.08c-48.91-40.47-97.86-80.93-145.86-122.48-9.06-8.08-12.15-21.14-9.87-33.07,3.44-17.92,11.56-34.88,20.9-50.32,5.33-8.8,17.71-11.16,25.75-7.69,24.62,11.39,48.64,24,72.21,37.44q-9.16,24.42-17.8,49.07-17.88-9.89-36.08-19.11,51.11,42.36,102.11,84.82c-3.29,20.52-7.16,41-11.35,61.34m119.6-69.16q-4.68,25.62-9.89,51.2A1340.5,1340.5,0,0,0,412,157l-.44-.27q7.95-24.63,16-49.18A1271.87,1271.87,0,0,1,533.7,183.92m38.59,32.47c19.16,17,37.84,34.45,55.62,52.85-3.14,27.11-6.92,51.08-6.92,51.08q-2-2-4-4c-13.75-13.64-19.17-18.45-29.67-28q-12.15-11-24.62-21.58c-.15-.14,5.1-27,9.23-50.71Z"/><g class="cls-62"><polyline class="cls-63" points="431.94 98.87 410.04 165.82 407.34 164.94 429.25 97.98"/><polyline class="cls-64" points="432.74 99.37 410.93 166.38 408.23 165.51 430.04 98.49"/><polyline class="cls-65" points="433.53 99.87 411.82 166.94 409.12 166.07 430.84 99"/><polyline class="cls-66" points="434.33 100.37 412.71 167.5 410.01 166.63 431.63 99.5"/><polyline class="cls-67" points="435.12 100.88 413.6 168.06 410.9 167.2 432.42 100.01"/><polyline class="cls-68" points="435.92 101.38 414.49 168.62 411.79 167.76 433.22 100.52"/><polyline class="cls-69" points="436.71 101.88 415.38 169.18 412.68 168.33 434.01 101.02"/><polyline class="cls-70" points="437.51 102.38 416.27 169.74 413.57 168.89 434.8 101.53"/><polyline class="cls-71" points="438.3 102.89 417.16 170.3 414.46 169.45 435.6 102.04"/><polyline class="cls-72" points="439.1 103.39 418.05 170.86 415.35 170.02 436.39 102.54"/><polyline class="cls-73" points="439.89 103.89 418.94 171.42 416.23 170.58 437.18 103.05"/><polyline class="cls-74" points="440.69 104.39 419.83 171.98 417.13 171.15 437.98 103.56"/><polyline class="cls-75" points="441.48 104.9 420.72 172.54 418.01 171.71 438.77 104.06"/><polyline class="cls-76" points="442.28 105.4 421.61 173.11 418.9 172.28 439.56 104.57"/><polyline class="cls-77" points="443.07 105.9 422.51 173.67 419.79 172.84 440.36 105.08"/><polyline class="cls-78" points="443.86 106.4 423.4 174.23 420.68 173.41 441.15 105.58"/><polyline class="cls-79" points="444.66 106.9 424.29 174.79 421.57 173.97 441.94 106.09"/><polyline class="cls-80" points="445.45 107.41 425.18 175.35 422.46 174.54 442.74 106.6"/><polyline class="cls-81" points="446.25 107.91 426.07 175.91 423.35 175.1 443.53 107.1"/><polyline class="cls-82" points="447.04 108.41 426.96 176.47 424.24 175.66 444.33 107.61"/><polyline class="cls-83" points="447.84 108.92 427.85 177.03 425.13 176.23 445.12 108.12"/><polyline class="cls-84" points="448.63 109.42 428.74 177.59 426.02 176.79 445.91 108.62"/><polyline class="cls-85" points="449.43 109.92 429.63 178.15 426.91 177.36 446.71 109.13"/><polyline class="cls-86" points="450.22 110.42 430.52 178.71 427.8 177.92 447.5 109.64"/><polyline class="cls-87" points="451.02 110.92 431.41 179.27 428.69 178.49 448.29 110.14"/><polyline class="cls-88" points="451.81 111.43 432.3 179.83 429.57 179.05 449.09 110.65"/><polyline class="cls-89" points="452.61 111.93 433.19 180.39 430.46 179.61 449.88 111.16"/><polyline class="cls-90" points="453.4 112.43 434.08 180.95 431.35 180.18 450.67 111.66"/><polyline class="cls-91" points="454.2 112.93 434.97 181.51 432.24 180.74 451.47 112.17"/><polyline class="cls-92" points="454.99 113.44 435.86 182.07 433.13 181.31 452.26 112.68"/><polyline class="cls-93" points="455.78 113.94 436.75 182.63 434.02 181.87 453.05 113.18"/><polyline class="cls-94" points="456.58 114.44 437.64 183.19 434.91 182.44 453.85 113.69"/><polyline class="cls-95" points="457.38 114.94 438.53 183.75 435.8 183 454.64 114.2"/><polyline class="cls-96" points="458.17 115.45 439.43 184.31 436.69 183.57 455.43 114.7"/><polyline class="cls-97" points="458.97 115.95 440.32 184.87 437.58 184.13 456.23 115.21"/><polyline class="cls-98" points="459.76 116.45 441.21 185.43 438.47 184.69 457.02 115.71"/><polyline class="cls-99" points="460.55 116.95 442.1 185.99 439.36 185.26 457.82 116.22"/><polyline class="cls-100" points="461.35 117.46 442.99 186.55 440.25 185.82 458.61 116.73"/><polyline class="cls-101" points="462.14 117.96 443.88 187.11 441.14 186.39 459.4 117.23"/><polyline class="cls-102" points="462.94 118.46 444.77 187.67 442.03 186.95 460.2 117.74"/><polyline class="cls-103" points="463.73 118.96 445.66 188.23 442.91 187.51 460.99 118.25"/><polyline class="cls-104" points="464.53 119.47 446.55 188.79 443.8 188.08 461.78 118.76"/><polyline class="cls-105" points="465.32 119.97 447.44 189.35 444.69 188.64 462.58 119.26"/><polyline class="cls-106" points="466.12 120.47 448.33 189.91 445.58 189.21 463.37 119.77"/><polyline class="cls-107" points="466.91 120.97 449.22 190.47 446.47 189.77 464.16 120.27"/><polyline class="cls-108" points="467.71 121.48 450.11 191.03 447.36 190.34 464.96 120.78"/><polyline class="cls-109" points="468.5 121.98 451 191.59 448.25 190.9 465.75 121.29"/><polyline class="cls-110" points="469.3 122.48 451.89 192.15 449.14 191.47 466.55 121.79"/><polyline class="cls-111" points="470.09 122.98 452.78 192.71 450.03 192.03 467.34 122.3"/><polyline class="cls-112" points="470.89 123.49 453.67 193.27 450.92 192.59 468.13 122.81"/><polyline class="cls-113" points="471.68 123.99 454.56 193.83 451.81 193.16 468.92 123.31"/><polyline class="cls-4" points="472.47 124.49 455.45 194.39 452.7 193.72 469.72 123.82"/><path class="cls-63" d="M475.87,218.78c-6.24,40.36-15.05,82.87-15.06,82.88l-2.78-.58.39-1.9c1.77-8.67,9.19-45.61,14.64-80.84l2.8.43Z"/><path class="cls-64" d="M476.83,219.68c-6.12,39.58-15.24,82.57-15.24,82.59l-2.77-.59.4-1.92c1.83-8.75,9.47-46,14.81-80.51l2.8.43Z"/><path class="cls-65" d="M477.78,220.59c-6,38.79-15.42,82.28-15.42,82.29l-2.77-.6.42-1.94c1.88-8.84,9.74-46.35,15-80.18l2.8.43Z"/><path class="cls-66" d="M478.74,221.48c-5.88,38-15.6,82-15.6,82l-2.77-.61.43-2c1.94-8.92,10-46.72,15.14-79.86l2.8.43Z"/><path class="cls-67" d="M479.7,222.4c-5.76,37.22-15.78,81.68-15.78,81.7l-2.77-.62.44-2c2-9,10.29-47.09,15.31-79.53l2.8.43Z"/><path class="cls-68" d="M480.65,223.3c-5.63,36.44-16,81.38-16,81.4l-2.76-.63.45-2c2-9.08,10.56-47.46,15.47-79.2l2.8.43Z"/><path class="cls-69" d="M481.59,224.2c-5.51,35.65-16.14,81.09-16.14,81.11l-2.76-.65.47-2c2.11-9.16,10.84-47.83,15.64-78.88l2.8.43Z"/><path class="cls-70" d="M482.59,225.11c-5.39,34.87-16.32,80.79-16.32,80.81l-2.76-.66.48-2c2.16-9.25,11.11-48.2,15.8-78.55l2.8.43Z"/><path class="cls-71" d="M483.52,226C478.25,260.09,467,306.5,467,306.52l-2.76-.67.49-2.05c2.22-9.33,11.38-48.57,16-78.22l2.8.43Z"/><path class="cls-72" d="M484.48,226.92c-5.15,33.3-16.68,80.2-16.69,80.22l-2.75-.68.5-2.07c2.27-9.41,11.66-48.94,16.13-77.9l2.8.43Z"/><path class="cls-73" d="M485.44,227.82c-5,32.52-16.87,79.9-16.87,79.92l-2.75-.69.52-2.09c2.33-9.49,11.93-49.31,16.3-77.57l2.8.43Z"/><path class="cls-74" d="M486.39,228.73c-4.91,31.73-17,79.6-17,79.62l-2.75-.7.53-2.11c2.39-9.57,12.21-49.68,16.47-77.25l2.8.43Z"/><path class="cls-75" d="M487.35,229.63c-4.79,31-17.22,79.3-17.23,79.32l-2.75-.71.54-2.13c2.44-9.66,12.48-50.06,16.63-76.92l2.8.43Z"/><path class="cls-76" d="M488.31,230.53c-2.33,15.09-6.68,34.83-10.45,50.82s-7,28.2-7,28.21l-2.74-.72.55-2.15c2.5-9.74,12.76-50.43,16.8-76.59l2.8.43Z"/><path class="cls-77" d="M489.26,231.48c-2.27,14.7-6.67,34.36-10.5,50.37s-7.09,28.35-7.09,28.36l-2.74-.72.57-2.17c2.55-9.82,13-50.8,17-76.27l2.8.43Z"/><path class="cls-78" d="M490.22,232.34c-2.21,14.31-6.65,33.9-10.54,49.93s-7.23,28.5-7.23,28.5l-2.74-.73.58-2.19c1.31-5,4.63-17.74,8.11-32.39s7.11-31.17,9-43.55l2.8.43Z"/><path class="cls-79" d="M491.18,233.25c-2.15,13.92-6.64,33.43-10.59,49.49s-7.36,28.64-7.37,28.65l-2.74-.74.59-2.21c1.33-5,4.73-17.88,8.25-32.52s7.18-31.07,9-43.09l2.8.43Z"/><path class="cls-80" d="M492.13,234.15c-2.09,13.53-6.62,33-10.63,49s-7.5,28.79-7.5,28.79l-2.73-.75.61-2.23c1.36-5,4.82-18,8.4-32.65s7.26-31,9.06-42.64l2.8.43Z"/><path class="cls-81" d="M493.09,235.06c-2,13.14-6.61,32.5-10.68,48.6s-7.64,28.93-7.64,28.94l-2.73-.76.62-2.25c1.39-5.08,4.92-18.15,8.54-32.78s7.34-30.86,9.09-42.18l2.8.43Z"/><path class="cls-82" d="M494.05,236c-2,12.75-6.59,32-10.72,48.16s-7.74,29.08-7.74,29.08l-2.73-.77.63-2.27c1.42-5.12,5-18.28,8.69-32.91s7.41-30.77,9.06-41.77l2.8.43Z"/><path class="cls-83" d="M495,236.87c-1.91,12.36-6.58,31.56-10.77,47.71s-7.91,29.22-7.91,29.23l-2.73-.77.64-2.29c1.45-5.16,5.11-18.41,8.83-33s7.53-30.7,9.14-41.27l2.8.43Z"/><path class="cls-84" d="M496,237.77c-1.85,12-6.56,31.09-10.82,47.27s-8,29.37-8,29.37l-2.72-.78.66-2.31c1.47-5.2,5.21-18.55,9-33.17s7.56-30.55,9.15-40.81l2.8.43Z"/><path class="cls-85" d="M496.92,238.67c-1.79,11.59-6.55,30.63-10.86,46.83S477.88,315,477.88,315l-2.72-.79.67-2.33c1.5-5.25,5.31-18.68,9.12-33.3s7.64-30.44,9.17-40.36l2.8.43Z"/><path class="cls-86" d="M497.87,239.58c-1.73,11.2-6.53,30.16-10.91,46.39s-8.31,29.66-8.32,29.66l-2.72-.8.67-2.35c1.53-5.29,5.4-18.82,9.27-33.43s7.72-30.34,9.19-39.9l2.8.43Z"/><path class="cls-87" d="M498.83,240.48c-.84,5.41-2.47,12.82-4.44,20.93-5.92,24.31-15,54.81-15,54.82l-2.72-.81.7-2.37c1.56-5.33,5.5-19,9.41-33.56S494.57,249.25,496,240l2.8.43Z"/><path class="cls-88" d="M499.79,241.39c-.81,5.22-2.43,12.51-4.42,20.55-6,24.11-15.16,54.89-15.17,54.9l-2.72-.81.71-2.39c1.59-5.37,5.6-19.09,9.56-33.69s7.87-30.13,9.24-39l2.8.43Z"/><path class="cls-89" d="M500.74,242.29c-.78,5-2.4,12.2-4.4,20.18-6,23.91-15.37,55-15.37,55l-2.71-.82.72-2.41c1.61-5.41,5.69-19.22,9.7-33.83s7.94-30,9.26-38.54l2.8.43Z"/><path class="cls-90" d="M501.7,243.2c-.75,4.84-2.37,11.89-4.37,19.8-6,23.72-15.57,55-15.57,55.06l-2.71-.83.73-2.43c1.64-5.45,5.79-19.35,9.84-34,2-7.3,4-14.78,5.69-21.45s3-12.56,3.59-16.63l2.8.43Z"/><path class="cls-91" d="M502.66,244.1c-.72,4.64-2.33,11.58-4.35,19.43-6.06,23.52-15.77,55.12-15.77,55.13l-2.71-.83.75-2.45c1.67-5.49,5.89-19.49,10-34.09,2.05-7.3,4.07-14.75,5.74-21.36s3-12.38,3.56-16.27l2.8.43Z"/><path class="cls-92" d="M503.59,245c-.69,4.45-2.3,11.27-4.33,19-6.09,23.32-16,55.2-16,55.21l-2.71-.84.76-2.46c1.7-5.54,6-19.62,10.13-34.22,2.15-7.22,4.15-14.68,5.84-21.22s3-12.2,3.53-15.91l2.8.43Z"/><path class="cls-93" d="M504.59,245.91c-.66,4.26-2.27,11-4.31,18.67-6.12,23.13-16.18,55.28-16.18,55.29l-2.71-.85.77-2.48c1.73-5.58,6.08-19.76,10.28-34.35,2.1-7.29,4.16-14.69,5.83-21.16s3-12,3.51-15.55l2.8.43Z"/><path class="cls-94" d="M505.53,246.81c-.63,4.07-2.23,10.64-4.28,18.3-6.16,22.93-16.39,55.37-16.39,55.37l-2.7-.85.78-2.5c1.75-5.62,6.18-19.89,10.42-34.48,2.12-7.29,4.2-14.66,5.88-21.07s3-11.84,3.48-15.2l2.8.43Z"/><path class="cls-95" d="M506.48,247.72c-.6,3.88-2.2,10.33-4.26,17.92-6.19,22.73-16.63,55.43-16.63,55.44l-2.7-.86.8-2.52c1.78-5.66,6.27-20,10.57-34.61,2.15-7.29,4.25-14.64,5.93-21s3-11.67,3.45-14.84l2.8.43Z"/><path class="cls-96" d="M507.44,248.62c-.57,3.69-2.17,10-4.24,17.55-6.22,22.54-16.79,55.51-16.79,55.52l-2.7-.86.81-2.54c1.81-5.7,6.37-20.16,10.71-34.74,2.17-7.29,4.29-14.61,6-20.87a142.06,142.06,0,0,0,3.42-14.48l2.8.43Z"/><path class="cls-97" d="M508.4,249.48c-.54,3.5-2.13,9.71-4.22,17.17-6.26,22.34-17,55.59-17,55.6l-2.7-.87.82-2.56c1.84-5.74,6.47-20.29,10.86-34.87,2.2-7.29,4.33-14.58,6-20.78s3-11.31,3.39-14.12l2.8.43Z"/><path class="cls-98" d="M509.35,250.48c-.26,1.67-.78,4-1.5,6.87-2.53,10-7.49,26.38-11.83,40.29S488,323,488,323l-2.7-.88.84-2.58c1.87-5.79,6.56-20.43,11-35,2.22-7.29,4.38-14.55,6.08-20.68a136.44,136.44,0,0,0,3.36-13.76l2.8.43Z"/><path class="cls-99" d="M510.31,251.34c-.24,1.58-.76,3.83-1.48,6.63-2.51,9.78-7.53,26.15-11.93,40.09s-8.16,25.42-8.16,25.42l-2.69-.88.85-2.6c1.9-5.83,6.66-20.56,11.15-35.13,2.24-7.28,4.42-14.53,6.13-20.58.86-3,1.6-5.76,2.17-8.05s1-4.14,1.17-5.35l2.8.43Z"/><path class="cls-100" d="M511.27,252.24c-.23,1.48-.74,3.66-1.45,6.4-2.5,9.57-7.57,25.91-12,39.89s-8.28,25.58-8.28,25.58l-2.69-.89.86-2.62c1.92-5.87,6.76-20.7,11.29-35.26,2.27-7.28,4.46-14.5,6.18-20.49.86-3,1.6-5.68,2.17-7.91a49.45,49.45,0,0,0,1.14-5.13l2.8.43Z"/><path class="cls-101" d="M512.22,253.14c-.22,1.39-.71,3.49-1.43,6.16-2.49,9.35-7.61,25.67-12.12,39.7s-8.39,25.71-8.39,25.71l-2.69-.89.87-2.64c2-5.91,6.85-20.83,11.44-35.39,2.29-7.28,4.51-14.47,6.23-20.39.86-3,1.6-5.6,2.17-7.78a41.9,41.9,0,0,0,1.11-4.91l2.8.43Z"/><path class="cls-102" d="M513.18,254.05c-.2,1.31-.69,3.31-1.4,5.93-2.48,9.13-7.65,25.44-12.21,39.5s-8.5,25.84-8.5,25.84l-2.69-.9.89-2.66c2-6,7-21,11.58-35.52,2.32-7.28,4.55-14.44,6.28-20.3.87-2.93,1.6-5.52,2.17-7.64s.94-3.76,1.08-4.69l2.8.43Z"/><path class="cls-103" d="M514.14,255a58.35,58.35,0,0,1-1.38,5.7c-2.47,8.91-7.69,25.2-12.3,39.3s-8.61,26-8.61,26l-2.69-.9.9-2.68c2-6,7-21.1,11.73-35.66,2.34-7.28,4.59-14.41,6.33-20.2.87-2.89,1.61-5.45,2.16-7.5s.93-3.63,1.06-4.46l2.8.43Z"/><path class="cls-104" d="M515.09,255.86a51.79,51.79,0,0,1-1.35,5.46c-2.45,8.69-7.73,25-12.4,39.1s-8.75,26.06-8.75,26.11l-2.69-.91.91-2.7c2-6,7.14-21.24,11.87-35.79,2.37-7.27,4.64-14.39,6.38-20.1.87-2.86,1.61-5.37,2.16-7.37a35.66,35.66,0,0,0,1-4.24l2.8.43Z"/><path class="cls-105" d="M516.05,256.76c-.08.53-.24,1.22-.46,2.09-.84,3.26-2.63,9.12-4.86,16.13-6.7,21-17.33,52.15-17.33,52.15l-2.68-.92.87-2.73c2.06-6.08,7.24-21.37,12-35.92,2.39-7.27,4.68-14.36,6.43-20,.88-2.82,1.61-5.29,2.16-7.23s.91-3.38,1-4l2.8.43Z"/><path class="cls-106" d="M517,257.67c-.08.5-.23,1.13-.45,2-.82,3.11-2.62,8.88-4.87,15.84-6.75,20.86-17.52,52.26-17.52,52.26l-2.68-.92.94-2.74c2.09-6.12,7.34-21.51,12.16-36,2.41-7.27,4.72-14.33,6.48-19.91.88-2.79,1.62-5.21,2.16-7.09.27-.94.5-1.75.66-2.4s.27-1.14.31-1.4l2.8.43Z"/><path class="cls-107" d="M518,258.57c-.07.46-.22,1-.43,1.85-.8,3-2.6,8.65-4.87,15.56-6.79,20.73-17.72,52.37-17.72,52.37l-2.68-.93,1-2.76c2.12-6.16,7.43-21.64,12.31-36.18,2.44-7.27,4.77-14.3,6.53-19.82.88-2.76,1.62-5.13,2.16-7,.27-.91.49-1.69.65-2.3s.26-1.07.29-1.27l2.8.43Z"/><path class="cls-108" d="M518.92,259.48a17.24,17.24,0,0,1-.42,1.72c-.78,2.81-2.59,8.41-4.87,15.28C506.79,297.07,495.72,329,495.72,329L493,328l1-2.78c2.15-6.2,7.53-21.77,12.45-36.31,2.46-7.27,4.81-14.28,6.58-19.72.88-2.72,1.63-5.05,2.16-6.82.27-.88.48-1.63.64-2.21s.25-1,.27-1.14l2.8.43Z"/><path class="cls-109" d="M519.88,260.38a2.8,2.8,0,0,1-.15.68c-.26,1-.8,2.76-1.56,5.15-5.36,16.67-21.67,63.34-21.67,63.35l-2.68-.94,1-2.8c2.18-6.24,7.63-21.91,12.6-36.44,2.49-7.27,4.85-14.25,6.63-19.63.89-2.69,1.63-5,2.16-6.69.27-.86.48-1.57.63-2.11a9.8,9.8,0,0,0,.25-1l2.8.43Z"/><path class="cls-110" d="M520.83,261.28a4.61,4.61,0,0,1-.14.62c-.24.91-.78,2.6-1.54,4.93-5.35,16.29-21.87,63.31-21.88,63.32l-2.67-.94,1-2.82c2.2-6.29,7.72-22,12.74-36.57,2.51-7.26,4.9-14.22,6.68-19.53.89-2.65,1.63-4.9,2.16-6.55.26-.83.48-1.51.62-2,.07-.25.13-.46.17-.62v-.24h0l2.8.43Z"/><path class="cls-111" d="M521.79,262.19a4,4,0,0,1-.14.57c-.23.82-.76,2.43-1.52,4.71-5.34,15.91-22.08,63.29-22.08,63.29l-2.67-.94,1-2.84c2.23-6.33,7.82-22.18,12.89-36.7,2.53-7.26,4.94-14.2,6.73-19.44.89-2.62,1.64-4.82,2.16-6.42.26-.8.47-1.45.62-1.93l.17-.57v-.16h0l.31.07H519l.31.07H519l2.8.43Z"/><path class="cls-112" d="M522.75,263.09a1.31,1.31,0,0,1-.06.27c-.08.29-.22.74-.45,1.42-1.66,5-7.51,21.65-12.95,37l-10.47,29.54-2.67-.95,1-2.86c2.26-6.37,7.92-22.31,13-36.84,2.56-7.26,5-14.17,6.78-19.34.9-2.59,1.64-4.74,2.16-6.29.26-.77.47-1.39.61-1.83l.16-.52v-.13h0l.8.18-.81-.13v-.06l.8.18-.81-.13,2.8.43Z"/><path class="cls-113" d="M523.7,264a.54.54,0,0,1,0,.18,1.66,1.66,0,0,1-.13.43c-.47,1.41-2.19,6.29-4.52,12.87-7,19.72-19.41,54.5-19.41,54.5L497,331l1-2.88c2.29-6.41,8-22.45,13.18-37,2.58-7.26,5-14.14,6.83-19.25.9-2.55,1.64-4.66,2.16-6.16l.6-1.75.16-.47v-.11h0l1.13.3-1.15-.18v-.12l1.13.3-1.15-.18,2.8.44Z"/><polyline class="cls-4" points="524.59 265.17 500.38 332.58 497.71 331.62 521.93 264.21"/><polyline class="cls-63" points="575.14 206.04 561.05 282 558.26 281.48 572.35 205.52"/><polyline class="cls-64" points="576.1 206.85 561.74 282.61 558.95 282.08 573.31 206.32"/><polyline class="cls-65" points="577.06 207.66 562.42 283.21 559.64 282.67 574.27 207.13"/><polyline class="cls-66" points="578.01 208.48 563.11 283.82 560.33 283.27 575.23 207.93"/><polyline class="cls-67" points="578.97 209.29 563.79 284.43 561.01 283.87 576.19 208.73"/><polyline class="cls-68" points="579.93 210.1 564.48 285.04 561.7 284.46 577.15 209.53"/><polyline class="cls-69" points="580.88 210.91 565.16 285.64 562.39 285.06 578.11 210.33"/><polyline class="cls-70" points="581.84 211.73 565.85 286.25 563.08 285.65 579.07 211.13"/><polyline class="cls-71" points="582.8 212.54 566.53 286.86 563.76 286.25 580.03 211.93"/><polyline class="cls-72" points="583.75 213.35 567.22 287.46 564.45 286.85 580.99 212.73"/><polyline class="cls-73" points="584.71 214.16 567.9 288.07 565.14 287.44 581.95 213.53"/><polyline class="cls-74" points="585.67 214.97 568.59 288.68 565.82 288.04 582.91 214.33"/><polyline class="cls-75" points="586.62 215.79 569.27 289.28 566.51 288.63 583.87 215.14"/><polyline class="cls-76" points="587.58 216.6 569.96 289.89 567.2 289.23 584.83 215.94"/><polyline class="cls-77" points="588.54 217.41 570.64 290.5 567.89 289.82 585.79 216.74"/><polyline class="cls-78" points="589.5 218.22 571.33 291.11 568.58 290.42 586.74 217.54"/><polyline class="cls-79" points="590.45 219.04 572.01 291.71 569.26 291.02 587.7 218.34"/><polyline class="cls-80" points="591.41 219.85 572.69 292.32 569.95 291.61 588.66 219.14"/><polyline class="cls-81" points="592.36 220.66 573.38 292.93 570.64 292.21 589.62 219.94"/><polyline class="cls-82" points="593.32 221.47 574.06 293.53 571.33 292.8 590.58 220.74"/><polyline class="cls-83" points="594.28 222.29 574.75 294.14 572.01 293.4 591.54 221.54"/><polyline class="cls-84" points="595.24 223.1 575.43 294.75 572.7 293.99 592.5 222.34"/><polyline class="cls-85" points="596.19 223.91 576.12 295.36 573.39 294.59 593.46 223.14"/><polyline class="cls-86" points="597.15 224.72 576.8 295.96 574.08 295.18 594.42 223.94"/><polyline class="cls-87" points="598.1 225.54 577.49 296.57 574.76 295.78 595.38 224.74"/><polyline class="cls-88" points="599.06 226.35 578.17 297.18 575.45 296.37 596.34 225.55"/><polyline class="cls-89" points="600.02 227.16 578.85 297.78 576.14 296.97 597.3 226.35"/><polyline class="cls-90" points="600.97 227.97 579.54 298.39 576.83 297.57 598.26 227.15"/><polyline class="cls-91" points="601.93 228.79 580.22 299 577.51 298.16 599.22 227.95"/><polyline class="cls-92" points="602.89 229.6 580.91 299.61 578.2 298.76 600.18 228.75"/><polyline class="cls-93" points="603.84 230.41 581.59 300.21 578.89 299.35 601.14 229.55"/><polyline class="cls-94" points="604.8 231.22 582.28 300.82 579.58 299.95 602.1 230.35"/><polyline class="cls-95" points="605.76 232.04 582.96 301.43 580.27 300.54 603.06 231.15"/><polyline class="cls-96" points="606.71 232.85 583.64 302.04 580.96 301.14 604.02 231.95"/><polyline class="cls-97" points="607.67 233.66 584.33 302.64 581.64 301.73 604.98 232.75"/><polyline class="cls-98" points="608.62 234.47 585.01 303.25 582.33 302.33 605.94 233.55"/><polyline class="cls-99" points="609.58 235.29 585.7 303.86 583.02 302.92 606.9 234.35"/><polyline class="cls-100" points="610.54 236.1 586.38 304.47 583.71 303.52 607.86 235.15"/><polyline class="cls-101" points="611.49 236.91 587.06 305.07 584.39 304.12 608.83 235.95"/><polyline class="cls-102" points="612.45 237.72 587.75 305.68 585.08 304.71 609.78 236.76"/><polyline class="cls-103" points="613.41 238.54 588.43 306.29 585.77 305.31 610.74 237.56"/><polyline class="cls-104" points="614.36 239.35 589.12 306.89 586.46 305.9 611.71 238.36"/><polyline class="cls-105" points="615.32 240.16 589.8 307.5 587.15 306.5 612.67 239.16"/><polyline class="cls-106" points="616.27 240.97 590.48 308.11 587.84 307.09 613.63 239.96"/><polyline class="cls-107" points="617.23 241.79 591.17 308.72 588.53 307.69 614.59 240.76"/><polyline class="cls-108" points="618.19 242.6 591.85 309.32 589.21 308.28 615.55 241.56"/><polyline class="cls-109" points="619.14 243.41 592.54 309.93 589.9 308.88 616.51 242.36"/><polyline class="cls-110" points="620.1 244.22 593.22 310.54 590.59 309.47 617.47 243.16"/><polyline class="cls-111" points="621.05 245.04 593.9 311.15 591.28 310.07 618.43 243.96"/><polyline class="cls-112" points="622.01 245.85 594.59 311.75 591.97 310.67 619.39 244.76"/><polyline class="cls-113" points="622.96 246.66 595.27 312.36 592.66 311.26 620.35 245.56"/><polyline class="cls-4" points="623.92 247.48 595.95 312.97 593.35 311.86 621.31 246.36"/></g><line class="cls-114" x1="833.55" x2="833.55" y2="741.48"/></svg>